# xmcd
#
# Track frame offsets: 
#        150
#        14600
#        39450
#        53200
#        66275
#        79350
#        102250
#        115150
#        130400
#        146700
#        160800
#        180275
#        193475
#
# Disc length: 2743 seconds
#
# Revision: 0
# Processed by: cddbd v1.4PL0 Copyright (c) Steve Scherf et al.
# Submitted via: ExactAudioCopy v0.90b3
#
DISCID=bc0ab50d
DTITLE=Marsha Powell - Singin' In My Daddy's Band
DYEAR=1900
DGENRE=Country
TTITLE0=Heartaches by the Numbers
TTITLE1=Faded Love
TTITLE2=I've Got a New Heartache
TTITLE3=Time Changes Everything
TTITLE4=Crazy Arms
TTITLE5=Maiden's Prayer
TTITLE6=San Antonio Rose
TTITLE7=Honky Tonk Angels
TTITLE8=Brain Cloudy Blues
TTITLE9=Pick Me Up On Your Way Down
TTITLE10=Precious Memories
TTITLE11=Frauline
TTITLE12=Oops San Antonio Rose
EXTD=
EXTT0=
EXTT1=
EXTT2=
EXTT3=
EXTT4=
EXTT5=
EXTT6=
EXTT7=
EXTT8=
EXTT9=
EXTT10=
EXTT11=
EXTT12=
PLAYORDER=
